<svg width="40" height="50" viewBox="0 0 40 50" fill="none" xmlns="http://www.w3.org/2000/svg">
<path id="seta" d="M38.5951 29.521L39.1879 28.9258L39.7831 29.5186L39.1903 30.1138L38.5951 29.521ZM20.5951 47.5923L21.1903 48.1851L20.5951 47.5923ZM37.4049 28.3354L36.8097 27.7426L37.4025 27.1474L37.9977 27.7402L37.4049 28.3354ZM20.84 44.9658L21.4351 45.5586L20 46.9995V44.9658H20.84ZM20.84 1V0.16H21.68V1H20.84ZM19.16 1H18.32V0.16H19.16V1ZM19.16 44.9658H20V46.9995L18.5649 45.5586L19.16 44.9658ZM2.59514 28.3354L2.00235 27.7402L2.59749 27.1474L3.19028 27.7426L2.59514 28.3354ZM1.40486 29.521L0.809715 30.1138L0.216919 29.5186L0.812061 28.9258L1.40486 29.521ZM19.4049 47.5923L18.8097 48.1851L19.4049 47.5923ZM20 48.1898L20.5951 48.7826L20 49.3801L19.4049 48.7826L20 48.1898ZM39.1903 30.1138L21.1903 48.1851L20 46.9995L38 28.9282L39.1903 30.1138ZM37.9977 27.7402L39.1879 28.9258L38.0023 30.1161L36.8121 28.9305L37.9977 27.7402ZM20.2449 44.3731L36.8097 27.7426L38 28.9282L21.4351 45.5586L20.2449 44.3731ZM21.68 1L21.68 44.9658H20L20 1H21.68ZM19.16 0.16H20.84V1.84H19.16V0.16ZM18.32 44.9658L18.32 1H20L20 44.9658H18.32ZM3.19028 27.7426L19.7551 44.3731L18.5649 45.5586L2 28.9282L3.19028 27.7426ZM0.812061 28.9258L2.00235 27.7402L3.18794 28.9305L1.99765 30.1161L0.812061 28.9258ZM18.8097 48.1851L0.809715 30.1138L2 28.9282L20 46.9995L18.8097 48.1851ZM19.4049 48.7826L18.8097 48.1851L20 46.9995L20.5951 47.597L19.4049 48.7826ZM21.1903 48.1851L20.5951 48.7826L19.4049 47.597L20 46.9995L21.1903 48.1851Z" fill="white"/>
</svg>
